<svg viewBox="0 0 1024 1024" height="1024" width="1024" id="svg833" version="1.1" xmlns:xlink="http://www.w3.org/1999/xlink" xmlns="http://www.w3.org/2000/svg">
  <metadata id="metadata839">
    
      
        image/svg+xml
        
        
      
    
  </metadata>
  <defs id="defs837">
    <linearGradient id="linearGradient862">
      <stop id="stop858" offset="0" style="stop-color:#fdfbef;stop-opacity:1"></stop>
      <stop id="stop860" offset="1" style="stop-color:#ded7c7;stop-opacity:1"></stop>
    </linearGradient>
    <radialGradient gradientTransform="translate(-4.4144922e-5,-5.695625e-5)" r="512" fy="512" fx="512" cy="512" cx="512" gradientUnits="userSpaceOnUse" id="radialGradient928" xlink:href="#linearGradient862"></radialGradient>
  </defs>
  
  <g style="display:inline" id="layer1">
    <circle r="512" cy="512" cx="512" id="path856" style="opacity:1;fill:url(#radialGradient928);fill-opacity:1;fill-rule:evenodd;stroke:none;stroke-width:1.51937;stroke-miterlimit:4;stroke-dasharray:none"></circle>
  </g>
  <g style="display:inline" id="g841">
    <path id="path1653" d="" style="opacity:1;fill:#e7ba59;fill-opacity:1;fill-rule:evenodd;stroke:none;stroke-width:0.392762;stroke-miterlimit:4;stroke-dasharray:none"></path>
    <path id="path1819" d="" style="opacity:1;fill:#e7ba59;fill-opacity:1;fill-rule:evenodd;stroke:none;stroke-width:0.785525;stroke-miterlimit:4;stroke-dasharray:none"></path>
    <path id="path1877" d="" style="opacity:1;fill:#e7ba59;fill-opacity:1;fill-rule:evenodd;stroke:none;stroke-width:0.55545;stroke-miterlimit:4;stroke-dasharray:none"></path>
    <path id="path2063" d="" style="opacity:1;fill:#e7ba59;fill-opacity:1;fill-rule:evenodd;stroke:none;stroke-width:0.55545;stroke-miterlimit:4;stroke-dasharray:none"></path>
    <path id="path2089" d="" style="opacity:1;fill:#e7ba59;fill-opacity:1;fill-rule:evenodd;stroke:none;stroke-width:0.277725;stroke-miterlimit:4;stroke-dasharray:none"></path>
    <path id="path2282" d="M 1.2029027,230.50639 1.0274038,0.55718956 203.1926,0.75746959 C 407.52443,0.95989622 462.51284,1.6720356 441.72132,3.8465877 435.98451,4.4465914 417.88831,7.9435997 401.50754,11.617717 311.49135,31.807861 228.72931,75.061662 163.87976,135.80878 86.263086,208.51536 35.019018,297.68416 11.879238,400.30194 8.2273978,416.49673 4.370775,436.65643 3.3089651,445.1013 1.6480583,458.31094 1.3538882,428.3368 1.2029027,230.50639 Z" style="opacity:1;fill:#000000;fill-opacity:0;fill-rule:evenodd;stroke:none;stroke-width:2.2218;stroke-miterlimit:4;stroke-dasharray:none"></path>
    <path id="path2284" d="M 1.2029027,230.50639 1.0274038,0.55718956 203.1926,0.75746959 C 407.52443,0.95989622 462.51284,1.6720356 441.72132,3.8465877 435.98451,4.4465914 417.88831,7.9435997 401.50754,11.617717 311.49135,31.807861 228.72931,75.061662 163.87976,135.80878 86.263086,208.51536 35.019018,297.68416 11.879238,400.30194 8.2273978,416.49673 4.370775,436.65643 3.3089651,445.1013 1.6480583,458.31094 1.3538882,428.3368 1.2029027,230.50639 Z" style="opacity:1;fill:#000000;fill-opacity:0;fill-rule:evenodd;stroke:none;stroke-width:2.2218;stroke-miterlimit:4;stroke-dasharray:none"></path>
    <path id="path2286" d="M 1.2029027,230.50639 1.0274038,0.55718956 203.1926,0.75746959 C 407.52443,0.95989622 462.51284,1.6720356 441.72132,3.8465877 435.98451,4.4465914 417.88831,7.9435997 401.50754,11.617717 311.49135,31.807861 228.72931,75.061662 163.87976,135.80878 86.263086,208.51536 35.019018,297.68416 11.879238,400.30194 8.2273978,416.49673 4.370775,436.65643 3.3089651,445.1013 1.6480583,458.31094 1.3538882,428.3368 1.2029027,230.50639 Z" style="opacity:1;fill:#000000;fill-opacity:0;fill-rule:evenodd;stroke:none;stroke-width:2.2218;stroke-miterlimit:4;stroke-dasharray:none"></path>
    <path id="path2288" d="M 1021.0892,453.52091 C 1019.6107,429.34068 1007.8399,377.65122 996.02651,343.4619 957.18614,231.05385 880.31581,136.28572 776.4619,72.775798 731.85923,45.499872 679.95263,24.846627 623.97392,12.101985 606.68207,8.1651603 587.92791,4.4520202 582.298,3.8505627 561.74238,1.6545533 615.79243,0.95261954 820.28998,0.75982375 L 1023.1863,0.56853743 V 235.27027 c 0,129.08595 -0.2469,234.70172 -0.5456,234.70172 -0.2987,-1e-5 -0.9957,-7.40299 -1.5489,-16.45108 z" style="opacity:1;fill:#000000;fill-opacity:0;fill-rule:evenodd;stroke:none;stroke-width:2.2218;stroke-miterlimit:4;stroke-dasharray:none"></path>
    <path id="path2290" d="m 580.8244,1020.4487 c 8.04275,-1.0697 27.78406,-4.9192 43.86958,-8.5546 173.57717,-39.22936 313.04426,-163.83302 371.32504,-331.75181 10.18718,-29.35131 21.76418,-77.22931 24.87608,-102.87723 1.661,-13.69022 1.9533,16.14062 2.1044,214.78204 l 0.1755,230.6804 -228.4869,-0.167 c -196.97909,-0.144 -226.47038,-0.4352 -213.8637,-2.1118 z" style="opacity:1;fill:#000000;fill-opacity:0;fill-rule:evenodd;stroke:none;stroke-width:2.2218;stroke-miterlimit:4;stroke-dasharray:none"></path>
    <path id="path2292" d="M 1.1966605,792.76692 C 1.3504794,596.92164 1.6583286,565.09493 3.2723657,578.17206 4.3146709,586.61695 8.1911198,607.01173 11.886697,623.49379 43.016,762.32876 127.91708,879.5779 250.34172,952.80226 c 29.39694,17.58284 58.20542,30.93364 92.85659,43.0328 28.46333,9.93854 74.03572,21.13604 100.16838,24.61214 12.60664,1.6769 -16.88465,1.9674 -213.86375,2.107 l -228.4868841,0.1619 z" style="opacity:1;fill:#000000;fill-opacity:0;fill-rule:evenodd;stroke:none;stroke-width:2.2218;stroke-miterlimit:4;stroke-dasharray:none"></path>
    <path id="path2294" d="m 449.118,837.15605 c -3.95642,-4.64452 -4.36842,-5.9588 -3.48483,-11.11651 2.28018,-13.30993 2.61694,-16.8166 1.61501,-16.81661 -2.07327,-3e-5 -6.07271,8.57533 -6.07276,13.02082 -7e-5,5.87191 -2.54591,5.6517 -7.80198,-0.67488 l -4.14614,-4.99059 2.43967,-7.34488 c 2.45582,-7.39352 3.1767,-7.69916 8.14906,-3.45514 3.03204,2.58791 5.40704,-0.003 25.30912,-27.60166 l 15.53353,-21.54127 10e-4,-20.13456 c 0.002,-22.09704 -4.61078,-51.57439 -8.06979,-51.57443 -0.99539,-10e-6 -4.02883,0.91791 -6.74096,2.03983 l -4.93113,2.03985 -22.86914,-14.78389 -22.86914,-14.78388 -5.28546,-11.75013 c -2.90701,-6.46256 -5.28305,-13.43064 -5.2801,-15.48463 0.007,-5.31493 -8.03737,-12.52361 -16.26748,-14.57643 -10.55753,-2.63332 -17.11319,-10.58431 -24.69073,-29.94595 -3.86553,-9.87696 -9.04077,-19.84109 -13.4083,-25.81564 l -7.11292,-9.73009 -12.02994,0.69715 c -6.61647,0.38344 -17.23347,1.61949 -23.59333,2.74679 -8.69369,1.54098 -13.09118,1.66491 -17.71964,0.4994 -5.89565,-1.48461 -6.26741,-1.91735 -8.78182,-10.22221 -1.97942,-6.53785 -3.19665,-8.5127 -4.94617,-8.02479 -1.27634,0.35594 -5.28181,1.07229 -8.90105,1.59189 -10.23911,1.47 -10.58209,1.6714 -17.40305,10.21924 l -6.43124,8.05945 -31.94344,-3.5e-4 -31.94343,-3.6e-4 -8.95712,18.64443 -8.95712,18.64443 -2.02632,21.56589 -2.02633,21.5659 7.39606,16.45438 c 6.54231,14.55502 8.69126,17.76259 18.61654,27.78746 6.17127,6.23319 12.01964,11.33308 12.99638,11.33309 3.81559,5e-5 3.28126,-3.24728 -2.39057,-14.52829 l -5.89684,-11.72858 2.9e-4,-26.0934 2.9e-4,-26.09341 7.69318,-11.05238 c 6.39896,-9.19304 13.73781,-16.37695 26.97944,-26.4099 0.97357,-0.73765 8.10741,-1.88408 15.85299,-2.54762 12.41513,-1.06356 15.78249,-0.79487 28.43476,2.26887 8.36277,2.02503 21.27462,6.74737 30.94103,11.31627 14.71377,6.95457 18.49584,9.58659 33.45543,23.28246 15.69536,14.36949 17.45422,16.54431 25.3355,31.32704 7.28533,13.66494 8.88157,18.13485 11.41906,31.97648 2.5832,14.09108 2.8264,19.49861 1.95677,43.50934 -0.54618,15.08013 -0.49495,27.41843 0.1139,27.41843 0.6088,10e-6 2.18031,-0.97139 3.49226,-2.15866 2.14492,-1.94108 3.33357,-1.20193 11.79259,7.33315 8.16612,8.23955 9.16762,9.8266 7.591,12.02942 -0.99893,1.39568 -2.18568,3.52465 -2.63723,4.73106 -0.45154,1.2064 -2.08395,4.99013 -3.62757,8.40828 -2.71594,6.01411 -3.02548,6.2148 -9.58505,6.21473 -5.52032,-6e-5 -6.47478,-0.366 -5.14226,-1.97156 1.24837,-1.50416 0.94419,-2.5978 -1.2832,-4.61361 -2.85915,-2.58751 -2.91949,-2.54676 -2.91954,1.97148 l -5e-5,4.61359 -8.08029,-9e-5 -8.08029,-9e-5 2.43421,-4.7525 c 1.33882,-2.61388 5.30404,-9.82947 8.81163,-16.03465 3.50758,-6.20518 6.37742,-12.01786 6.37743,-12.91707 5e-5,-4.23184 -4.09136,0.84737 -13.06217,16.21583 l -9.78142,16.75717 -7.5885,0.44192 c -7.06432,0.41139 -9.77706,-1.11037 -6.06689,-3.40332 1.57226,-0.97169 5.27625,-6.59127 12.2648,-18.60777 3.27347,-5.62861 3.59879,-6.94597 1.71527,-6.94599 -1.32021,-1e-5 -6.5305,6.31724 -12.06066,14.62303 l -9.73632,14.62305 -7.17487,-8e-5 c -5.33008,-6e-5 -6.90243,-0.47006 -6.11533,-1.82796 0.58273,-1.00534 7.2021,-10.82102 14.7097,-21.81261 7.50761,-10.99159 13.65018,-20.36862 13.65019,-20.83785 0,-0.46923 -0.82254,-0.83285 -1.82789,-0.80808 -1.00534,0.0249 -9.06647,10.19271 -17.91362,22.59541 l -16.08573,22.55035 -7.67716,0.0703 c -4.22244,0.0386 -7.65973,-0.42333 -7.63843,-1.02653 0.0213,-0.60321 11.57902,-15.90256 25.68385,-33.99856 14.10481,-18.09601 26.34188,-34.21791 27.19349,-35.82645 3.62117,-6.83973 -12.45026,10.84216 -34.69286,38.16931 -13.15939,16.16753 -25.43966,30.31987 -27.28952,31.4496 -2.20225,1.34496 -5.72573,1.79815 -10.20622,1.31274 l -6.84285,-0.7414 21.93279,-24.85913 c 12.06304,-13.67252 28.24926,-32.42654 35.96938,-41.6756 7.72012,-9.24907 14.4742,-17.33158 15.00906,-17.96114 2.2024,-2.59233 5.84221,1.17313 9.53648,9.86566 3.26991,7.69407 9.76015,15.40744 12.96426,15.40747 0.37703,10e-6 1.49254,-3.60604 2.47892,-8.01343 1.56279,-6.98287 1.36838,-10.60307 -1.51167,-28.1496 -3.09205,-18.83821 -3.8442,-21.14925 -11.66855,-35.85288 -7.98313,-15.00202 -9.11072,-16.35705 -24.79668,-29.79857 -19.35222,-16.58318 -34.8214,-25.38978 -53.57093,-30.49793 -28.58986,-7.78908 -44.02556,-4.25981 -59.38035,13.57693 -8.04052,9.34019 -8.27594,9.86662 -10.09867,22.58221 -2.98364,20.81423 -0.53858,38.00647 7.764,54.59203 l 6.52995,13.04448 -3.66357,5.48364 c -3.43969,5.14854 -4.12223,5.48364 -11.16901,5.48356 l -7.50544,-8e-5 -14.9003,-14.98891 C 163.49325,676.921 161.33283,673.97766 155.35656,661.05699 l -6.64241,-14.36085 2.4e-4,-21.40683 c 2.1e-4,-18.78717 0.48067,-23.11411 3.92614,-35.35793 3.24098,-11.51712 5.77035,-16.72294 14.49797,-29.83882 l 10.57206,-15.88774 18.03902,-11.53016 c 25.63078,-16.38266 40.51763,-21.80244 76.63405,-27.89973 10.80151,-1.82355 19.63911,-3.78473 19.63912,-4.35816 1e-5,-0.57343 -3.45469,-3.13643 -7.6771,-5.69554 -7.93325,-4.80819 -10.20421,-7.40896 -32.76709,-37.52602 -13.06477,-17.43893 -13.58625,-18.44516 -20.84177,-40.21534 l -7.44172,-22.32889 4.1e-4,-36.97216 c 3.3e-4,-30.06826 0.56921,-40.71741 3.04649,-57.02887 2.93053,-19.29595 3.45205,-20.89867 13.74932,-42.25446 5.88679,-12.20877 11.45198,-25.69858 12.36709,-29.97734 1.28049,-5.98717 3.136,-9.29569 8.05345,-14.35993 3.93509,-4.05256 8.02863,-10.51251 10.6563,-16.81652 3.73235,-8.95426 5.46449,-11.15181 13.83129,-17.54764 6.50459,-4.97231 11.70927,-10.64862 16.26812,-17.74231 5.85315,-9.10766 8.05733,-11.18452 17.37589,-16.37226 5.86982,-3.26778 15.60083,-9.90732 21.62449,-14.75453 6.02364,-4.84721 12.93313,-9.24296 15.35442,-9.76835 2.42128,-0.52538 16.4257,-4.16682 31.12094,-8.0921 25.13018,-6.71258 28.14447,-7.19309 50.70245,-8.0825 l 23.98382,-0.94563 4.48494,3.77391 c 3.19566,2.68902 6.90643,4.03941 12.90835,4.69747 10.52026,1.15346 13.80491,2.49965 21.51526,8.81784 3.57617,2.93048 10.35859,6.33728 16.22237,8.14849 8.02176,2.47777 11.17117,4.35584 15.44314,9.20916 2.95149,3.35315 8.57364,7.5989 12.49365,9.43498 5.97642,2.7993 8.14944,5.03615 13.45751,13.85285 3.48162,5.78297 10.82358,14.79182 16.31548,20.01967 9.95312,9.47457 10.01152,9.57673 18.14469,31.74506 l 8.15944,22.2399 -2.6e-4,22.78 c -2.1e-4,19.13103 -0.60726,25.52373 -3.78969,39.90859 -4.38888,19.83803 -8.2797,27.6746 -22.82222,45.96683 -12.5397,15.77297 -30.30293,28.66477 -55.30754,40.13983 l -17.22531,7.90502 -8.1898,-4.01677 c -7.76867,-3.81022 -8.1898,-4.29796 -8.18974,-9.48494 4e-5,-4.16102 2.09747,-8.79727 8.77411,-19.39479 l 8.77405,-13.9266 3.1e-4,-27.55444 3e-4,-27.55442 -8.54844,-10.14206 c -8.14821,-9.66725 -9.2766,-10.43667 -24.10133,-16.43419 l -15.55289,-6.29212 -9.37605,2.81278 c -10.87886,3.26359 -30.16011,17.60552 -30.16017,22.43394 -1e-5,1.55585 -2.63225,7.62473 -5.84941,13.4864 -5.68325,10.35489 -5.84939,11.05819 -5.84954,24.76104 -1.4e-4,13.0607 0.43762,15.2023 5.92089,28.96604 5.42927,13.62816 7.00815,16.02093 19.00979,28.80887 8.05105,8.57851 13.08873,15.15017 13.08871,17.07423 -4e-5,3.78569 22.45009,19.70035 27.94812,19.81215 8.56686,0.17418 22.63141,9.92496 49.73474,34.48046 27.20119,24.64416 27.24472,24.69354 36.92301,41.88569 8.30681,14.75585 9.68972,18.2413 9.68965,24.42134 -5e-5,4.57075 1.87289,12.38325 5.11787,21.34797 3.98335,11.00451 5.11793,16.36966 5.11784,24.20082 -6e-5,5.53397 0.44073,10.06178 0.97955,10.06178 0.53881,10e-6 5.30966,-4.14868 10.6019,-9.2193 13.21358,-12.66029 57.75121,-40.21204 86.51432,-53.51927 30.37404,-14.0525 35.73642,-18.7344 46.16086,-40.30292 l 7.79859,-16.13559 0.0133,-15.2847 c 0.0133,-14.95423 -0.0797,-15.38106 -4.30295,-19.74131 l -4.31655,-4.45662 -20.21384,1.28348 -20.21383,1.28347 -13.07774,8.95238 c -10.10762,6.91917 -14.08465,10.66945 -17.51134,16.51298 -3.17019,5.4061 -6.19402,8.41664 -10.61113,10.56451 l -6.1775,3.00388 -7.0132,-4.35975 -7.01322,-4.35977 1.83968,-24.65855 c 1.75856,-23.57156 2.12924,-25.42171 8.40856,-41.9708 6.37533,-16.80209 6.92527,-17.67106 18.66324,-29.48934 13.35832,-13.44946 27.88827,-23.7708 33.46376,-23.77073 1.98952,2e-5 10.98426,-2.96107 19.98829,-6.5802 l 16.37098,-6.58024 25.62548,2.8e-4 25.62547,2.8e-4 21.55078,10.81836 c 20.07545,10.07777 22.3521,11.65446 33.25644,23.03184 10.70651,11.17099 12.66661,14.21062 22.9634,35.61068 11.20721,23.2922 11.27108,23.49273 14.23527,44.69047 l 2.97752,21.29328 -5.98992,27.67279 c -4.22052,19.49832 -7.39248,30.48687 -10.73797,37.19926 -2.61143,5.23958 -5.95032,12.81669 -7.41974,16.83805 -1.53038,4.1881 -7.05988,12.62139 -12.9438,19.74112 -16.06766,19.44241 -58.07288,62.87895 -60.80693,62.87891 -1.35501,-10e-6 -7.34938,4.16596 -13.32082,9.25772 -5.97144,5.09176 -16.68212,12.80187 -23.80153,17.13356 l -12.94436,7.87582 5.63266,2.37187 c 3.09798,1.30453 11.88407,3.88654 19.52465,5.7378 7.64058,1.85128 23.10453,6.24999 34.36432,9.77493 11.2598,3.52495 33.96219,9.02207 50.44977,12.21584 35.55281,6.88685 47.88305,6.87342 72.23741,-0.0786 13.09869,-3.73912 15.18997,-4.8374 21.98084,-11.54376 8.40145,-8.2969 12.85882,-9.29983 21.98645,-4.94704 4.931,2.3515 5.16769,2.81056 5.16761,10.02267 -7e-5,5.88319 -1.44084,10.64133 -6.50097,21.4694 -7.72868,16.53843 -11.80118,20.53551 -37.51146,36.8168 -17.62612,11.16191 -17.97246,11.30304 -40.62319,16.55336 l -22.8455,5.29548 -55.56799,-1.73739 c -30.5624,-0.95556 -69.38688,-1.72464 -86.27663,-1.70906 -36.90573,0.0341 -52.39245,2.88287 -67.05206,12.33445 -8.56253,5.52057 -9.15514,7.48363 -2.53636,8.40195 2.65375,0.36821 4.0987,2.0611 5.83307,6.83398 2.19935,6.05247 2.17207,6.44207 -0.59246,8.4635 -5.0814,3.71551 -8.617,1.98216 -10.07119,-4.93749 -0.71836,-3.41817 -1.83181,-6.21486 -2.47433,-6.21487 -2.73255,-3e-5 -2.88604,3.51108 -0.44971,10.28655 l 2.60268,7.23806 -4.1643,4.34651 c -2.29037,2.39059 -4.67134,4.03314 -5.29103,3.65013 -0.61971,-0.383 -2.23658,-4.03794 -3.59309,-8.12211 -1.73408,-5.22105 -2.92559,-6.96647 -4.01321,-5.87887 -1.08761,1.08758 -0.74668,4.1898 1.14833,10.44886 l 2.69521,8.90201 -4.48793,4.48783 c -5.38292,5.38272 -7.72299,4.43792 -7.72291,-3.1182 4e-5,-3.85164 -0.75202,-5.89512 -2.4027,-6.52857 -3.67033,-1.40848 -3.79819,-0.43917 -1.24297,9.42219 l 2.36743,9.13662 -4.76596,4.91712 c -2.62129,2.7044 -5.29493,4.91711 -5.94143,4.9171 -0.64651,-10e-6 -1.17542,-2.93805 -1.17538,-6.52899 5e-5,-5.03236 -0.67033,-6.88777 -2.92455,-8.09422 -3.5045,-1.8756 -3.58782,-1.20017 -1.34723,10.92105 1.56277,8.45437 1.53585,8.57515 -2.9003,13.0112 -4.37467,4.37457 -4.52769,4.41151 -6.64912,1.60556 -1.48105,-1.9589 -2.18617,-6.52603 -2.21781,-14.36469 l -0.0464,-11.49262 10.14088,-16.29127 c 9.74338,-15.65267 10.8468,-16.83536 28.14992,-30.17234 25.56924,-19.70836 33.44911,-23.42042 61.87869,-29.14988 l 23.39711,-4.71526 54.83682,3.50345 c 54.29091,3.46858 55.16434,3.47862 87.73895,1.00957 19.05054,-1.44397 36.59665,-3.54567 41.67782,-4.99224 6.19278,-1.76303 14.58555,-6.4711 28.51534,-15.99615 18.90999,-12.93048 20.00026,-13.95412 25.94007,-24.35492 4.59928,-8.05346 6.20419,-12.46198 6.21504,-17.07196 0.0204,-8.69863 -3.01138,-8.1778 -13.83813,2.37727 -9.72683,9.48272 -13.70539,10.95818 -47.56482,17.63962 -14.84519,2.92938 -15.57845,2.94444 -22.11215,0.45394 -6.26018,-2.38624 -9.43667,-2.44886 -43.13832,-0.85054 -36.18651,1.71617 -36.57937,1.70263 -73.66952,-2.53582 -37.08189,-4.2375 -37.5002,-4.25191 -75.30925,-2.59589 l -38.02024,1.66527 -8.55358,7.31946 c -7.58871,6.49381 -10.64031,7.9528 -27.05299,12.93425 -14.39137,4.36795 -20.94348,5.61645 -29.50565,5.62225 l -11.00622,0.007 -35.90281,36.19192 c -44.25419,44.61055 -48.61868,50.8305 -51.14123,72.88251 -2.0315,17.75947 -3.41775,19.57702 -9.49244,12.44583 z m -72.33537,-65.85799 c 1.9358,-3.61697 1.90627,-4.48306 -0.15288,-4.48308 -1.70148,-2e-5 -5.51438,4.23264 -5.59846,6.21478 -0.0974,2.29538 4.30556,0.96969 5.75134,-1.7317 z m 4.43848,-7.40766 c 0,-0.80428 -0.98705,-1.46233 -2.19346,-1.46234 -1.20641,-2e-5 -2.19348,0.65801 -2.19349,1.46229 -10e-6,0.80427 0.98704,1.46232 2.19346,1.46234 1.20641,10e-6 2.19348,-0.65802 2.19349,-1.46229 z m -29.24619,-12.31041 c 0,-0.33636 0.39944,-1.65244 0.88764,-2.92463 1.30304,-3.39552 -2.74603,-2.89382 -4.9352,0.61151 -1.59885,2.5601 -1.46043,2.92461 1.11054,2.92464 1.61536,2e-5 2.93702,-0.27518 2.93702,-0.61152 z m 8.51229,-14.17769 c 2.67103,-4.08384 4.54477,-7.73682 4.16386,-8.11774 -1.42269,-1.42273 -6.70874,3.18299 -9.64107,8.40026 -3.53087,6.28215 -3.68617,7.20449 -1.20711,7.16888 1.00534,-0.0146 4.01329,-3.36756 6.68432,-7.4514 z m -15.82366,-4.22095 c 1.20197,-2.24585 1.1121,-2.92462 -0.38722,-2.92463 -2.14936,-3e-5 -5.46205,2.83794 -5.46207,4.67935 -2e-5,2.37543 4.33482,1.07502 5.84929,-1.75472 z m 183.27024,-18.73042 c 5.76782,-4.67287 12.79009,-9.37889 15.60506,-10.45783 2.81497,-1.07894 14.3308,-8.57346 25.59072,-16.6545 15.46099,-11.09607 23.0016,-15.52217 30.80371,-18.08079 5.68213,-1.86339 18.44159,-7.65439 28.35437,-12.86887 l 18.02322,-9.48089 25.76561,2.9e-4 25.76562,2.9e-4 35.81289,-24.86307 c 22.19209,-15.40685 39.01087,-28.21328 44.2213,-33.6717 l 8.40841,-8.80862 2e-4,-17.42786 c 1.8e-4,-16.63347 0.22213,-17.91487 4.86909,-28.11166 3.78247,-8.29984 6.00182,-11.29388 9.94612,-13.41797 3.57263,-1.92394 6.42913,-5.3903 9.63935,-11.69738 l 4.56215,-8.9632 -2.0466,-13.16087 c -1.12563,-7.23848 -2.06071,-21.7528 -2.07796,-32.25405 l -0.0314,-19.09319 -10.11208,-4.89204 c -9.45562,-4.57446 -10.78821,-5.85068 -20.52691,-19.65843 -7.806,-11.06753 -14.09204,-17.87993 -25.09485,-27.19622 -13.66886,-11.57365 -15.60409,-12.7058 -28.09471,-16.436 -12.66045,-3.7809 -55.12143,-11.34893 -63.67454,-11.34902 -2.86983,-3e-5 -6.15528,2.27955 -12.11828,8.40818 -7.55038,7.76008 -8.69294,9.88228 -14.82205,27.53061 -5.80811,16.72407 -6.77289,21.26326 -7.69239,36.19224 -1.02445,16.63281 -0.97376,17.06985 1.97967,17.06989 2.18151,2e-5 4.79887,-2.88305 9.33838,-10.28642 5.91659,-9.64921 7.22506,-10.81548 21.12171,-18.82635 l 14.81438,-8.53992 18.08784,-1.61119 c 17.08166,-1.52154 18.64518,-1.43172 28.10681,1.61474 9.77072,3.14599 10.12399,3.43395 14.25745,11.62253 3.67664,7.28358 4.23847,10.02972 4.23836,20.71618 -1.3e-4,11.6905 -0.36672,13.10457 -7.17917,27.69325 -4.84375,10.37273 -10.77843,19.89481 -18.24405,29.27225 l -11.06502,13.89855 -21.60448,8.33714 c -11.88247,4.58541 -22.64917,9.51808 -23.92603,10.96146 -1.27685,1.44338 -9.68961,6.31945 -18.69502,10.83572 -9.60851,4.8187 -22.24349,12.7995 -30.58081,19.31616 -21.05151,16.45435 -49.81227,45.00303 -61.12389,60.67316 -5.4359,7.5304 -11.79821,15.99477 -14.13846,18.8097 -2.46845,2.96912 -7.57126,14.02087 -12.1532,26.32155 l -7.89821,21.2035 -0.027,17.91337 c -0.0178,11.85425 0.50662,17.91338 1.55037,17.91339 0.86751,10e-6 6.2964,-3.82324 12.0642,-8.49611 z m -23.87707,-46.20375 c 8e-5,-7.29286 13.36815,-33.68217 24.90361,-49.16109 l 11.46982,-15.39086 -1.5476,-11.66188 c -1.04353,-7.86338 -3.39481,-15.77341 -7.21872,-24.28478 -5.14161,-11.44429 -5.6711,-13.77523 -5.67098,-24.96455 l 1.4e-4,-12.34167 -13.52629,-12.07328 c -14.36457,-12.82151 -37.39877,-25.98881 -51.77866,-29.59881 -4.22072,-1.0596 -12.43641,-5.48345 -20.34656,-10.95587 -7.29705,-5.04826 -19.55748,-11.88778 -27.24543,-15.19893 -11.79517,-5.08012 -14.6947,-7.01818 -18.56689,-12.41023 -2.52383,-3.51447 -7.94142,-10.05832 -12.03907,-14.5419 l -7.45028,-8.15197 1.04283,-9.73674 c 0.57357,-5.3552 1.33821,-10.50647 1.69924,-11.44726 0.36102,-0.94079 -2.30091,-5.26793 -5.91542,-9.61587 -6.29568,-7.57317 -6.47655,-8.05112 -4.30462,-11.37471 1.93144,-2.95556 2.0257,-5.09325 0.63643,-14.43473 l -1.63077,-10.96536 12.44731,-13.55981 12.44729,-13.55983 1.7e-4,-14.81455 c 1.5e-4,-14.0202 0.2746,-15.35951 5.11838,-24.97771 2.81502,-5.58973 5.12017,-11.66017 5.12254,-13.48986 0.003,-2.34977 3.69672,-6.54744 12.5777,-14.29395 10.86453,-9.47666 14.25705,-11.53513 24.96139,-15.1457 l 12.38802,-4.17846 9.0333,3.22767 c 21.08935,7.53538 29.2994,12.52586 39.66991,24.11336 8.9069,9.95211 10.1824,12.17398 12.83339,22.35534 2.75356,10.57525 2.82712,12.62632 1.13968,31.77734 l -1.80384,20.4724 -8.60835,15.48208 c -4.7346,8.51513 -8.60836,15.91806 -8.60837,16.45096 -8e-5,7.66224 57.08998,-25.22706 65.23851,-37.58358 2.19338,-3.32607 7.49729,-10.39978 11.78648,-15.71934 7.09997,-8.80557 8.19806,-11.19972 12.25888,-26.72789 l 4.46037,-17.05597 -3.36764,-4.26532 c -2.07931,-2.63358 -4.78756,-4.29628 -7.07933,-4.34625 -5.13736,-0.11208 -12.66244,-9.50788 -21.14978,-26.40764 -3.78142,-7.52946 -10.26306,-17.59167 -14.40365,-22.36046 -8.3675,-9.63703 -14.34841,-12.88524 -43.70669,-23.73696 -13.00066,-4.80545 -20.76838,-8.83995 -31.99836,-16.61973 -13.32991,-9.23456 -16.22496,-10.59614 -28.62044,-13.46062 -13.33742,-3.08216 -14.83224,-3.12982 -45.50419,-1.45094 -26.10824,1.42907 -78.19464,6.97124 -90.21413,9.59907 -1.61276,0.3526 -7.04165,3.69474 -12.0642,7.42697 -7.06203,5.24776 -9.13192,7.63569 -9.13195,10.53513 -3e-5,2.37008 -3.76554,8.7588 -10.23641,17.36751 -7.43797,9.89533 -10.23637,14.83255 -10.23641,18.06007 -3e-5,2.61097 -4.57604,13.5783 -11.10193,26.60797 -10.37554,20.71593 -11.29219,23.32181 -14.01046,39.82969 -1.96887,11.95675 -3.14816,27.82114 -3.65014,49.1033 l -0.74156,31.43979 5.2777,19.74133 c 7.10083,26.56078 11.71075,37.36767 19.3588,45.38224 3.48011,3.64689 6.32747,7.47386 6.32746,8.50437 -6e-5,4.99998 17.41132,23.82258 31.43942,33.98765 8.04267,5.82789 18.95698,14.43321 24.25402,19.12293 8.90517,7.88418 10.16249,8.52679 16.68357,8.52686 4.53307,5e-5 16.24224,2.93049 32.776,8.20281 24.41866,7.78665 26.17984,8.60256 34.72195,16.08586 4.9492,4.33572 10.22075,7.88315 11.71457,7.88317 1.56922,10e-6 12.99772,10.34237 27.06642,24.49409 23.33408,23.47176 24.6693,25.13491 31.99142,39.84847 4.20258,8.44492 9.7936,22.66219 12.4245,31.59393 2.6309,8.93174 6.5058,19.63851 8.61089,23.79282 3.38952,6.68907 4.15752,7.37667 6.71221,6.00948 1.60751,-0.86029 2.88478,-3.05619 2.8848,-4.9596 z" style="opacity:1;fill:#000000;fill-opacity:0;fill-rule:evenodd;stroke:none;stroke-width:2.2218;stroke-miterlimit:4;stroke-dasharray:none"></path>
    <path id="path2546" d="m 512.66225,955.99978 h -1.4239 l -64.27683,-64.07015 -64.27685,-64.07011 -92.55805,0.21484 -92.55803,0.21485 v -14.32423 -14.32423 l -9.66138,-10.65961 -9.66138,-10.65958 -7.00582,-13.78087 -7.00582,-13.78087 -2.33811,-10.63815 -2.33811,-10.63818 2.26363,-10.57487 2.26364,-10.57487 7.06496,-15.39589 7.06496,-15.39589 9.67672,-15.07851 9.67671,-15.07857 v -2.00882 -2.00883 L 132.7843,578.7474 68,514.12756 l 22.262584,-22.50008 22.262586,-22.50011 42.52171,-41.98032 42.52171,-41.98032 v -92.57399 -92.57399 h 93.12007 93.12006 L 448.26369,134.00937 512.71866,68 l 64.7926,66.10454 64.79261,66.10451 92.71127,-0.0951 92.71127,-0.0951 v 91.95103 91.951 l 63.43403,63.72795 63.43403,63.72792 0.70276,2.06572 0.70277,2.06569 -64.13679,63.88521 -64.1368,63.8852 0.0507,22.25742 0.0507,22.25739 8.28838,12.19211 8.28836,12.19211 2.79857,10.04262 2.7986,10.04263 0.0167,9.91808 0.0167,9.91808 -4.43637,15.096 -4.43636,15.096 -6.71687,7.10044 -6.71687,7.10044 v 15.44669 15.44669 l -52.28079,1.82303 -52.2808,1.823 -18.124,-2.77437 -18.12401,-2.77437 -20.93457,-0.0559 -20.93697,-0.0559 L 579.56676,890.6853 514.086,956 Z m -5.15921,-38.91079 h 2.35615 v -11.28141 -11.28137 l -2.91043,1.79295 -2.91047,1.79298 -4.06031,-3.35892 -4.06033,-3.35894 v 7.76465 7.76467 l 4.61462,5.0827 4.61462,5.08269 z m 16.2977,-4.16901 5.57661,-5.03056 V 893.99271 880.096 l -5.57661,5.03056 -5.57662,5.03055 v 13.89671 13.89671 z m -33.94867,-19.36271 0.9052,-7.51453 -5.08766,-3.74466 -5.08766,-3.74467 -0.92115,5.60029 -0.92114,5.60027 5.10361,5.6589 5.10361,5.65891 z m 53.7608,-0.35786 5.28265,-4.76538 v -10.22337 -10.22339 l -1.86496,-1.85896 -1.86496,-1.85894 -4.44223,4.00723 -4.44222,4.00723 1.02454,12.84045 1.02453,12.84047 z m -73.24383,-17.85041 0.94033,-6.25916 -5.81987,-5.80113 -5.81987,-5.80115 v 6.6523 6.6523 l 4.87954,5.40798 4.87954,5.40799 z m 87.0091,2.8292 h 2.90597 l 3.64299,-3.3921 3.64298,-3.39211 -0.8044,-4.25108 -0.80443,-4.25109 -1.67697,-7.88847 -1.67697,-7.88847 -4.06759,3.36493 -4.06758,3.36495 v 12.1667 12.16674 z m -103.10246,-18.57923 1.7774,-5.04518 -3.04491,-4.86384 -3.04489,-4.86385 h -1.81929 -1.81926 l -1.7597,4.57096 -1.7597,4.57096 4.84647,5.33806 4.84647,5.33806 z m 119.68353,1.90318 h 2.13657 l 3.21249,-3.8584 3.21252,-3.85836 -1.86961,-11.65423 -1.86959,-11.65425 -5.38821,5.37091 -5.38824,5.37089 1.90873,10.14173 1.90874,10.14171 z M 437.92082,847.60544 h 2.23065 v -5.00282 -5.00281 l -3.34597,-3.33521 -3.34597,-3.33521 h -2.23065 -2.23065 v 5.00281 5.00282 l 3.34597,3.33521 3.34597,3.33521 z m 154.62623,-3.40923 4.15126,-4.13791 -1.90525,-10.12314 -1.90522,-10.12314 h -2.1366 -2.13657 l -3.04631,3.65878 -3.04631,3.65875 2.9369,10.60228 2.93687,10.60227 z m -168.48482,-16.30195 2.33919,-6.30316 -3.99163,-3.97879 -3.99163,-3.9788 -1.91111,6.00196 -1.9111,6.00199 3.56354,4.27997 3.56351,4.27999 z m 182.58128,2.25082 4.30616,-4.2923 -1.87617,-9.96872 -1.8762,-9.96875 h -2.32054 -2.32054 l -3.04631,3.65878 -3.04632,3.65875 2.9369,10.60228 2.93687,10.60227 z m -196.35413,-14.65263 2.44565,-4.35609 -1.53995,-4.0002 -1.53999,-4.00019 h -4.26999 -4.26996 v 5.00281 5.00282 l 3.36429,3.35347 3.36429,3.35347 z m 210.14564,1.17819 3.74484,-3.09794 v -4.66248 -4.66252 l -3.34597,-3.33521 -3.34597,-3.33521 h -3.6248 -3.62481 v 4.03825 4.03821 l 3.22594,7.05742 3.22596,7.05742 z m -348.97624,-9.93732 19.51816,-1.30084 28.86477,-4.08377 28.86477,-4.08377 33.87218,-9.8578 33.87218,-9.8578 18.12401,0.2482 18.12401,0.24819 16.70685,3.99837 16.70685,3.99833 0.92569,-0.92269 0.92566,-0.92271 -4.33233,-8.3509 -4.33237,-8.35092 -7.13963,-5.59795 -7.1396,-5.59799 -13.48669,-2.88306 -13.48666,-2.88307 -25.79543,2.87073 -25.7954,2.87072 -24.03882,7.07821 -24.03879,7.0782 -19.51816,5.26905 -19.51816,5.26902 -26.48894,1.68617 -26.48893,1.68615 -15.3357,-4.54953 -15.3357,-4.54956 -15.09655,-8.29473 -15.09654,-8.29475 -1.03084,1.02755 -1.03087,1.02755 11.05286,13.93796 11.05286,13.93795 7.86283,5.40107 7.86287,5.40109 8.36492,3.13535 8.36493,3.13532 6.97077,1.1887 6.97077,1.1887 19.51817,-1.30085 z m 125.63847,1.96133 h 1.22958 v -2.77934 -2.77934 h -2.95287 -2.95285 l 1.72326,2.77934 1.72326,2.77934 z m 234.21795,0 h 1.22959 v -1.22563 -1.22567 l -3.21913,-1.98311 -3.21914,-1.98315 1.98955,3.20878 1.98951,3.20878 z m 103.19386,-0.32691 11.34424,0.32691 14.94073,-4.42266 14.94076,-4.42265 14.14549,-8.08797 14.14551,-8.08797 6.97077,-5.79629 6.97077,-5.79626 -2.78831,1.33875 -2.78831,1.33876 -22.30647,10.28209 -22.30647,10.28206 -14.61648,3.08618 -14.61646,3.08619 -22.62191,-3.28658 -22.62191,-3.28657 -46.06844,-15.50431 -46.06844,-15.50428 -21.25991,-3.08871 -21.25991,-3.08868 -17.27435,7.72732 -17.27436,7.72735 -5.02699,5.68142 -5.02695,5.68139 6.97077,-2.00796 6.97077,-2.00799 32.22856,-1.5673 32.22856,-1.56727 23.53762,4.6308 23.53762,4.6308 29.27724,8.55651 29.27725,8.55651 12.54739,2.13175 12.54739,2.13176 z m -224.64987,-86.2223 12.54739,0.26765 11.48901,-5.20054 11.48903,-5.20051 1.85369,-12.32163 1.85373,-12.32163 -1.70232,-4.42187 -1.70229,-4.42185 9.57053,-4.52694 9.57057,-4.52691 7.20485,-7.51498 7.20488,-7.51495 7.25696,-22.93132 7.25697,-22.93133 12.74463,-18.55558 12.74464,-18.55558 0.76681,-4.37224 0.76684,-4.37224 -4.36181,-6.94835 -4.3618,-6.94836 -4.39198,-3.38279 -4.39198,-3.38279 -16.72985,-5.42028 -16.72986,-5.42024 -11.02355,-1.85152 -11.02352,-1.85151 -10.69526,-5.43876 -10.69522,-5.43875 -5.45912,-8.92077 -5.45912,-8.92074 -1.66089,-8.75813 -1.66085,-8.75815 -6.26862,-1.19445 -6.26862,-1.19448 -5.53906,2.04246 -5.53909,2.04245 -5.03627,13.46883 -5.0363,13.46883 -5.68994,6.25352 -5.68993,6.25352 -9.9701,0.0653 -9.97013,0.0653 -20.72374,5.49329 -20.72375,5.49326 h -7.6425 -7.64248 l -8.42984,7.07042 -8.42981,7.07042 -1.77216,5.56561 -1.77217,5.56563 8.43759,17.43851 8.43759,17.43854 5.75078,14.54296 5.7508,14.54296 8.79266,17.22283 8.79268,17.22284 12.00322,12.50704 12.00325,12.50703 15.59984,17.10038 15.59983,17.10037 13.07887,2.72128 13.0789,2.72131 12.54739,0.26738 z m -4.87954,-44.59221 -21.60939,-0.0734 -6.2737,-2.39685 -6.27369,-2.39688 v -1.42274 -1.42275 l 11.04215,-5.61519 11.04215,-5.61516 h 10.77829 10.77826 l 6.06268,6.43265 6.06265,6.43265 v 3.07562 3.07565 l -21.6094,-0.0734 z m 8.63645,-34.70645 -27.45753,0.52749 -12.54739,-1.4149 -12.54739,-1.41491 2.7883,-1.80288 2.78831,-1.80287 12.16066,-3.25139 12.16062,-3.25141 -1.6422,-8.18464 -1.64221,-8.18463 -11.21549,-14.80706 -11.21553,-14.80708 v -8.9676 -8.96761 l 6.27369,1.9593 6.2737,1.9593 6.64973,5.17636 6.64972,5.17635 h 4.82456 4.82455 l 7.08953,-5.55868 7.08953,-5.55868 h 10.01635 10.01636 v 3.8296 3.82957 l -4.07857,9.73003 -4.0786,9.73003 -4.41225,1.6877 -4.41224,1.68767 -4.05655,9.67751 -4.05657,9.6775 v 5.31076 5.31077 l 7.66785,2.94274 7.66785,2.94277 9.2614,1.82794 9.26137,1.82792 -1.322,1.31777 -1.32202,1.31774 z m 290.57425,7.42537 h 1.22959 v -2.77934 -2.77934 h -2.95287 -2.95285 l 1.72326,2.77934 1.72326,2.77934 z m -1.72844,-11.11736 h 2.30763 l 1.427,-5.43931 1.427,-5.43932 -9.65354,-3.17573 -9.65355,-3.1757 -1.90441,1.90312 -1.90442,1.9031 7.82333,6.71192 7.82335,6.71192 z m -588.05369,-15.35401 2.00541,-1.23541 1.34951,-5.14395 1.34949,-5.14395 -6.58956,1.25562 -6.58955,1.25562 v 1.89949 1.89946 l 3.23466,3.22425 3.23466,3.22426 z m 601.46788,-2.11474 3.48539,-2.66728 v -2.16714 -2.16713 l -8.77771,-3.05008 -8.77768,-3.05008 -3.76971,3.11851 -3.76969,3.1185 v 2.03695 2.03698 l 9.06201,2.72904 9.062,2.72904 z m -563.7632,-9.34015 13.76926,-11.52251 20.37501,-20.22797 20.37501,-20.22794 16.45638,-22.72229 16.45637,-22.72226 21.7231,-36.10079 21.72311,-36.10079 29.27724,-56.20577 29.27724,-56.20577 9.82645,-12.96738 9.82642,-12.96741 9.30626,-6.25133 9.30626,-6.25129 9.77171,-1.82731 9.77171,-1.82728 15.29371,3.41156 15.29371,3.41159 13.20245,12.93959 13.20244,12.93958 12.01056,27.79342 12.01053,27.79343 20.85465,41.69013 20.85466,41.69013 12.09164,18.67317 12.09161,18.67315 21.72238,22.70681 21.72235,22.70678 19.25838,13.51205 19.25837,13.51205 h 2.44911 2.44914 l -2.75156,-5.12481 -2.75156,-5.1248 -15.82638,-41.42917 -15.82639,-41.42918 -12.30718,-36.13145 -12.30717,-36.13144 -19.62822,-63.92487 -19.62825,-63.92487 -12.26184,-25.48606 -12.26186,-25.48604 -15.05921,-16.21343 -15.05921,-16.21346 -23.33991,-13.03589 -23.33987,-13.03592 -12.74642,-3.37963 -12.74642,-3.37959 -14.055,7.62509 -14.055,7.62507 -23.93691,17.90719 -23.93691,17.90716 -16.68175,16.62811 -16.68176,16.62811 -12.25668,18.73399 -12.25671,18.73399 -8.80919,20.07921 -8.80921,20.07919 -12.33749,49.40436 -12.33748,49.40434 -11.44417,31.84122 -11.44417,31.8412 -14.38848,33.47334 -14.38849,33.47331 -12.39751,23.62441 -12.3975,23.62441 -7.16029,12.50704 -7.16029,12.50704 z m -45.03802,-2.57748 8.61772,-1.84006 2.22663,-1.31026 2.22663,-1.3103 -3.368,-4.04514 -3.36799,-4.04513 -8.61772,1.84009 -8.61771,1.84006 -2.22664,1.31027 -2.22663,1.31029 3.368,4.04514 3.368,4.04514 z m 618.00264,1.34229 1.53357,0.25069 3.34597,-3.33521 3.34597,-3.33521 v -2.09754 -2.09751 l -10.00091,-1.87017 -10.00088,-1.87013 -4.35186,4.33786 -4.35188,4.33788 9.47322,2.71434 9.47323,2.71436 1.53357,0.25069 z m -631.33229,-16.50613 9.84179,-2.21252 1.24063,-1.23667 1.24063,-1.23664 -3.93821,-3.25791 -3.93821,-3.25792 -11.56066,1.84267 -11.56064,1.84268 4.41643,4.86443 4.41646,4.86444 z m 644.00518,2.73474 3.05323,0.12535 4.7104,-5.1882 4.7104,-5.1882 -11.56064,-1.84268 -11.56066,-1.84267 -4.22141,3.49221 -4.22145,3.49222 8.01845,3.41331 8.01845,3.41328 3.05323,0.12535 z m -664.31753,-15.11634 3.22339,-0.97008 7.91392,-1.73634 7.91392,-1.73631 -3.37578,-4.0545 -3.3758,-4.0545 -5.93227,0.0381 -5.9323,0.0381 -6.38517,1.70493 -6.38514,1.70493 4.5559,5.01805 4.5559,5.01802 3.22343,-0.9701 z m 676.95568,-1.75677 7.32642,0.3224 3.2009,-3.84444 3.20089,-3.84441 -4.48168,-1.71427 -4.48167,-1.71424 h -7.79547 -7.79547 l -3.2778,3.93679 -3.2778,3.9368 5.02763,1.29949 5.0276,1.29948 z m -688.08645,-14.74274 8.08047,-1.61091 h 4.45354 4.45354 l -5.87583,-5.85693 -5.87583,-5.85694 -11.65611,1.96294 -11.65608,1.96297 4.99794,5.50487 4.9979,5.50488 z m 707.51385,0.70123 1.65908,0.4672 4.73499,-5.21526 4.73499,-5.2153 -4.53089,-1.73306 -4.53086,-1.73309 h -7.70474 -7.70471 l -4.88012,5.37514 -4.88013,5.37514 10.72166,1.10598 10.72166,1.10601 z M 147.81119,547.4365 h 13.50938 v -1.77811 -1.77809 l -4.87954,-3.69219 -4.87954,-3.69218 -13.67663,-0.0884 -13.67659,-0.0884 5.04675,5.55868 5.04678,5.55869 z m 729.24046,0 h 13.94155 l 5.04678,-5.55868 5.04678,-5.55869 h -13.94154 -13.94154 l -5.04679,5.55869 -5.04678,5.55868 z M 128.72519,527.98111 h 13.94154 l -5.04678,-5.55869 -5.04676,-5.55868 H 118.63165 104.6901 l 5.04676,5.55868 5.04678,5.55869 z m 767.84463,0 h 13.94154 l 5.04678,-5.55869 5.04679,-5.55868 h -13.94155 -13.94154 l -5.04679,5.55868 -5.04678,5.55869 z m -777.93817,-19.4554 h 13.94154 l 5.04676,-5.55868 5.04678,-5.55869 h -13.94154 -13.94155 l -5.04678,5.55869 -5.04676,5.55868 z m 786.20542,0 h 12.11523 v -2.22347 -2.22348 l -3.34597,-3.33521 -3.34597,-3.33521 h -13.81605 -13.81604 l 5.04678,5.55869 5.04679,5.55868 z m -751.18435,-21.97067 4.87954,-3.90495 v -2.34857 -2.34857 H 146.41703 134.3018 l -4.88955,5.38547 -4.88952,5.38551 12.12524,0.86801 12.12521,0.86805 z m 734.02005,2.95047 12.8819,-1.02124 -4.78072,-5.26566 -4.78075,-5.26566 h -12.11523 -12.11523 v 1.86566 1.86566 l 4.01407,4.42124 4.01408,4.42124 z M 156.79671,472.39426 h 12.20596 l 3.26511,-3.92156 3.26514,-3.92157 -2.22663,-1.36193 -2.22663,-1.36191 -8.71341,-0.9039 -8.71341,-0.90387 -4.53106,3.74833 -4.53106,3.74836 v 2.43902 2.43903 z m 708.2162,-0.0425 8.7206,-0.0425 3.61736,-2.28726 3.61738,-2.28729 -4.66303,-3.85753 -4.66305,-3.85753 -8.71341,0.90387 -8.71341,0.90389 -2.22663,1.36191 -2.22664,1.36193 3.26514,3.92157 3.26511,3.92157 8.72058,-0.0425 z m -677.61521,-19.27198 5.16482,-4.29642 -11.80035,-2.32612 -11.80037,-2.32614 -4.31564,4.30178 -4.31566,4.30178 3.98042,1.35552 3.98043,1.35551 6.97077,0.96527 6.97077,0.96523 z m 662.0082,3.40397 7.59776,-1.21633 3.98042,-1.26638 3.98042,-1.26638 -4.37603,-4.36195 -4.37602,-4.36196 -11.63718,1.95977 -11.63715,1.95977 4.43503,4.88489 4.435,4.88486 z m -10.53236,-15.62091 11.01572,-2.93081 -4.24389,-4.67435 -4.24389,-4.67436 -11.12181,2.81395 -11.12184,2.81394 4.35001,4.79123 4.34999,4.79122 z m -645.13174,0.68167 5.93227,0.2771 3.31898,-3.98628 3.31901,-3.98629 -10.50454,-2.8911 -10.50453,-2.89113 -5.28667,4.76896 -5.28663,4.76899 6.5399,1.83136 6.53992,1.8314 5.93229,0.2771 z m 631.1902,-14.57838 11.01571,-2.93081 -4.24389,-4.67436 -4.24389,-4.67435 -11.12181,2.81395 -11.12184,2.81394 4.35002,4.79123 4.34998,4.79122 z m -617.24865,0.63628 5.93226,0.3224 3.09238,-3.71412 3.0924,-3.71411 -10.25164,-3.13619 -10.25163,-3.13621 -3.65257,3.02162 -3.65258,3.02162 v 2.23523 2.23523 l 4.87954,1.27105 4.87954,1.27108 z m 14.98002,-11.0948 1.39416,0.12312 5.29226,-3.99299 5.29224,-3.993 -6.68639,-2.46789 -6.68642,-2.468 -4.18247,-1.42605 -4.18246,-1.42606 -5.08158,4.41935 -5.08156,4.41935 9.26402,3.34455 9.26405,3.34455 1.39415,0.12312 z m 578.49944,0.29983 h 0.63665 l 8.78103,-3.05124 8.781,-3.05122 v -2.16713 -2.16714 l -3.48539,-2.88304 -3.48539,-2.88304 -9.39791,3.939 -9.39791,3.93902 3.46564,4.1624 3.46562,4.16239 z m -2.84804,-15.78224 9.18912,-4.36787 -1.34396,-5.12286 -1.34397,-5.12283 -10.01094,4.16938 -10.01095,4.1694 -1.23765,1.23364 -1.23762,1.23366 3.40344,4.08769 3.40341,4.08769 z m -561.35418,1.70935 1.74981,0.17621 3.12248,-3.75025 3.12246,-3.75025 -10.96154,-4.29197 -10.96154,-4.29197 -1.64423,4.27102 -1.64424,4.27101 0.86485,0.86204 0.86482,0.86204 6.86866,2.73301 6.86864,2.73298 1.74983,0.17622 z m 11.15324,-11.00222 1.7498,0.0611 3.02975,-3.63891 3.02978,-3.63888 -15.2975,-7.47849 -15.29753,-7.47857 h -1.33237 -1.33239 v 5.69457 5.69456 l 11.85031,5.36177 11.85032,5.36177 1.74983,0.0611 z m 529.41,0.0611 h 2.09243 l 12.90184,-5.68873 12.90184,-5.68876 v -6.79235 -6.79235 l -18.01384,8.85446 -18.01382,8.85445 3.01955,3.62665 3.01954,3.62663 z m -513.16297,-12.57883 4.0559,-4.04286 -5.44975,-3.98002 -5.44978,-3.97999 -19.03645,-10.25558 -19.03648,-10.25557 0.91247,7.76806 0.91245,7.76807 19.51788,10.51036 19.51788,10.51036 z m 503.41691,1.34075 2.78831,-0.0356 16.72985,-8.95474 16.72986,-8.9547 0.891,-6.25352 0.891,-6.25352 h -1.28736 -1.28736 l -22.9177,12.84656 -22.91769,12.84654 3.79589,2.39726 3.79589,2.39727 z m -493.20958,-13.29409 3.20368,-4.36718 -12.91564,-8.21671 -12.91562,-8.21668 -13.36718,-7.90639 -13.36715,-7.9064 h -1.27147 -1.27144 v 5.21838 5.21836 l 4.2931,3.5515 4.29311,3.5515 20.05747,11.7204 20.05748,11.72043 z m 483.4505,0.66793 4.18246,-1.4753 21.6094,-12.60846 21.60939,-12.60846 v -6.84824 -6.84822 l -3.48539,1.94657 -3.48538,1.94657 -24.52979,15.22507 -24.52978,15.22507 -1.27183,-1.26774 -1.27184,-1.26774 29.28701,-19.16362 29.287,-19.16365 v -7.88285 -7.88288 l -9.062,6.31908 -9.06201,6.31911 -24.3977,17.85472 -24.3977,17.85474 v 1.16282 1.16282 l 7.66785,6.73793 7.66785,6.73794 z m -473.13579,-11.14816 2.48945,-4.43411 -2.38018,-2.13459 -2.38016,-2.13459 -28.67653,-19.83227 -28.67653,-19.8323 h -1.29779 -1.29779 v 6.6974 6.69741 l 29.86505,19.70356 29.86502,19.70359 z m 7.88695,-6.75316 1.79291,0.0753 1.44727,-3.75937 1.44725,-3.75934 -37.0863,-29.59265 -37.08632,-29.59274 h -1.7048 -1.7048 v 6.4832 6.48318 l 11.78061,9.49804 11.78063,9.49801 23.77031,17.29546 23.77033,17.29548 1.79291,0.0753 z m 440.27312,0.0753 h 2.90737 l 15.91371,-11.64133 15.91372,-11.64133 18.82109,-15.07549 18.82108,-15.07548 v -6.64713 -6.64716 l -29.97432,22.68135 -29.97432,22.68132 -7.66785,7.0336 -7.66785,7.03359 v 3.64903 3.64903 z m -431.08706,-12.10596 2.61404,-0.7485 0.96202,-2.87681 0.96205,-2.87685 -23.09425,-20.69634 -23.09423,-20.69634 -19.51816,-16.33558 -19.51816,-16.33559 -0.94393,6.43799 -0.9439,6.43798 9.30883,9.26138 9.30885,9.26138 30.6714,24.95791 30.6714,24.95788 z m 422.76973,0.94604 1.56081,0.0425 15.16904,-12.65218 15.16904,-12.65215 23.00355,-19.7037 23.00355,-19.7037 v -8.23252 -8.23249 l -10.45616,9.03289 -10.45616,9.03291 -33.04882,29.13062 -33.04882,29.13062 3.77158,2.38228 3.77158,2.38229 1.56081,0.0425 z m -409.39366,-10.08829 2.13389,-1.31458 v -3.52729 -3.52726 l -47.40125,-45.18146 -47.40125,-45.18143 v 8.34487 8.34486 l 32.76263,30.32799 32.76263,30.32798 12.50473,11.35045 12.50473,11.35044 z m 413.09174,-11.42974 14.25927,-13.31366 6.97077,-6.44952 6.97077,-6.44952 24.39771,-22.55494 24.3977,-22.55492 v -7.89372 -7.89369 l -3.79199,2.22261 -3.79196,2.22261 -45.48147,43.61055 -45.48148,43.61054 3.64569,4.37866 3.64569,4.37866 z m -403.47478,-1.09795 3.73893,-3.09308 -3.50476,-4.49508 -3.5048,-4.49509 -38.78618,-40.99529 -38.78619,-40.9953 h -6.78669 -6.78669 l 7.60857,9.03286 7.60857,9.03287 37.73015,39.55059 37.73014,39.55059 z m 377.20562,3.20313 h 2.36125 l 46.59434,-47.94365 46.59434,-47.94365 -7.86314,-0.93405 -7.86314,-0.93403 -22.43591,23.20593 -22.43593,23.20592 -16.75247,18.02856 -16.75243,18.02859 -3.70285,4.74212 -3.70282,4.74208 1.79877,2.90111 1.79873,2.90107 z m -366.39403,-14.03787 3.81725,-3.15786 -33.86558,-40.04062 -33.86557,-40.04062 h -8.42766 -8.42767 l 9.86342,10.42254 9.8634,10.42253 28.61259,32.77592 28.61259,32.77594 z m 357.95025,2.4568 2.60857,-0.92597 32.55412,-37.52111 32.55412,-37.52112 4.30431,-4.86385 4.30434,-4.86385 h -8.41614 -8.41612 l -32.73983,38.9238 -32.73982,38.92379 1.68894,4.38714 1.68893,4.38714 z m -347.35585,-10.54466 2.71573,-2.70699 -2.55794,-5.05924 -2.55791,-5.05926 -23.65504,-31.16288 -23.65503,-31.16287 h -6.31929 -6.31928 v 1.66388 1.66388 l 22.71153,29.60372 22.7115,29.60372 7.105,7.6615 7.105,7.66154 z m 336.41684,-0.65712 2.31468,-0.84155 29.61962,-36.13145 29.61965,-36.13145 -7.3806,-0.9069 -7.38059,-0.90692 -4.35936,6.20385 -4.35938,6.20385 -21.81397,29.06389 -21.81398,29.06388 1.61962,2.61217 1.61962,2.61216 z m -8.30295,-9.75663 2.00873,-2.20229 21.25241,-29.62209 21.2524,-29.62212 v -1.64548 -1.64551 h -6.37602 -6.376 l -19.95052,29.78821 -19.95052,29.78821 3.06539,3.68168 3.06541,3.68169 z m -321.61746,-5.46718 3.3199,-4.29476 -18.6556,-27.4761 -18.65563,-27.47607 -7.63542,-0.0111 -7.63542,-0.0111 15.66591,21.5399 15.66595,21.5399 7.30518,10.24263 7.3052,10.24263 3.31993,-4.29476 z m 309.58025,-3.73202 2.17873,-0.0486 11.02573,-18.712 11.02572,-18.71201 6.73215,-9.03286 6.73215,-9.03286 h -7.21603 -7.21603 l -9.61719,14.98574 -9.61718,14.98571 -4.61181,8.88953 -4.61178,8.88953 1.50839,3.91818 1.50839,3.91815 2.17876,-0.0486 z m -301.74695,-6.47248 2.78831,-0.88794 0.7645,-3.93872 0.7645,-3.93869 -11.97411,-19.45539 -11.97415,-19.4554 -7.6111,-0.87941 -7.61111,-0.87941 16.03244,25.16144 16.03241,25.16144 z m 299.03657,-16.31404 6.81806,-11.9067 5.36588,-10.42253 5.3659,-10.42254 -6.33038,0.0111 -6.33035,0.0111 -9.38054,18.0829 -9.38057,18.0829 3.52696,4.23607 3.52696,4.23606 6.81808,-11.90671 z m -287.62906,0.39 3.811,-3.15269 -2.93383,-5.96169 -2.93383,-5.96166 -4.61242,-9.03287 -4.61242,-9.03286 h -6.43481 -6.4348 l 3.26943,6.25352 3.26946,6.25352 6.90059,11.8937 6.90062,11.89369 z m 270.48149,-2.56901 h 0.98115 l 4.31589,-8.31915 4.31588,-8.31918 2.65748,-6.9672 2.65749,-6.96723 h -5.45095 -5.45092 l -5.79838,11.32916 -5.79834,11.32918 3.29478,3.9572 3.2948,3.95722 z m -263.80623,-8.33802 h 1.71423 l 3.09427,-3.08432 3.09427,-3.08432 -2.80939,-8.03305 -2.80936,-8.03305 h -6.69802 -6.69799 v 1.29537 1.2954 l 4.69888,9.82197 4.69889,9.822 z m 252.98233,-5.55869 h 0.65182 l 4.16899,-8.03605 4.16903,-8.03602 -5.49813,-1.43317 -5.49813,-1.43316 -2.48374,4.42387 -2.48371,4.42391 3.16102,5.04531 3.16099,5.04531 z m -240.32725,-8.33802 h 1.13149 l 2.98453,-5.55869 2.98452,-5.55868 -2.18935,0.0425 -2.18933,0.0425 -3.84262,2.42603 -3.8426,2.42606 1.91593,3.09007 1.91593,3.09008 h 1.1315 z m 230.28498,-9.92234 2.47237,-1.52308 v -3.66467 -3.66467 l -3.85685,-3.1906 -3.85681,-3.19061 -1.7679,4.59223 -1.7679,4.59225 3.15235,3.78613 3.15235,3.78613 z m -216.40988,-6.75371 4.18246,-3.45998 v -2.77934 -2.77934 l -4.18246,3.45997 -4.18247,3.45998 v 2.77934 2.77934 z m 205.32332,-8.95513 2.08671,-3.36547 -2.97025,-3.5674 -2.97021,-3.5674 h -2.44688 -2.44691 v 3.61315 3.61314 l 3.33044,3.31973 3.33041,3.3197 z m -192.07886,-2.85577 3.48539,-1.15676 1.01868,-5.2399 1.01868,-5.23992 -4.50407,3.72604 -4.50406,3.72602 v 2.67064 2.67064 z m 178.10544,-10.98952 2.15545,-3.47637 -4.53321,-4.99301 -4.53317,-4.99303 -2.15548,3.4764 -2.15545,3.47637 4.53321,4.99301 4.53318,4.99303 z m -161.5305,-4.29817 6.1188,-6.0991 -1.86894,-1.86294 -1.86895,-1.86293 -4.24983,3.5157 -4.24986,3.51573 v 4.44633 4.44631 z m 146.81264,-10.93399 0.96857,-4.35158 -5.84812,-5.82931 -5.84811,-5.82928 v 7.42787 7.42788 l 4.87954,2.75302 4.87954,2.75302 z m -132.46066,1.13867 3.22987,-1.0559 0.89084,-8.12368 0.89086,-8.12368 -6.10877,5.97316 -6.10876,5.9732 1.98803,3.20639 1.98807,3.20639 z m 115.68273,-15.10953 0.92053,-7.15258 -5.80007,-5.78139 -5.80004,-5.7814 v 9.34407 9.34409 l 4.87954,3.58991 4.87954,3.58988 z m -103.39086,4.66624 2.09123,-0.0884 4.60565,-3.49258 4.60567,-3.49255 -1.46782,-7.65367 -1.46779,-7.65367 -5.22909,4.71702 -5.22908,4.71701 v 6.51762 6.51758 z m 23.28227,-13.95702 5.2979,-2.82623 -0.0382,-4.76605 -0.0382,-4.76607 -1.71043,-6.36463 -1.71043,-6.36461 -5.22228,4.71087 -5.22226,4.71087 v 4.90062 4.90062 l 1.67288,4.34542 1.67287,4.34542 5.2979,-2.82623 z m 61.76116,2.84351 2.09123,0.0845 v -9.29693 -9.29696 l -5.26907,-4.75309 -5.2691,-4.75312 -1.09733,11.46974 -1.09734,11.4697 4.2752,2.49582 4.27517,2.4958 2.09124,0.0845 z m -17.95292,-23.6659 0.86817,-13.27519 -5.74771,-5.72923 -5.74771,-5.72922 v 13.60065 13.60066 l 4.87954,5.40376 4.87954,5.40376 z m -24.20219,6.87879 5.21001,-2.77934 v -13.79891 -13.79893 h -1.87168 -1.87168 l -5.09909,4.59978 -5.09909,4.59976 v 10.22339 10.22339 l 1.76076,1.7551 1.76079,1.7551 z" style="fill:#31452a;fill-opacity:1;stroke-width:2.78382"></path>
  </g>
</svg>
